<svg xmlns="http://www.w3.org/2000/svg" width="220" height="60" viewBox="0 0 442184 120596" shape-rendering="geometricPrecision" text-rendering="geometricPrecision" image-rendering="optimizeQuality" fill-rule="evenodd" clip-rule="evenodd"><path fill="none" d="M0 0h442185v120596H0z"/><path d="M120848 10933L98622 33160l-7986-7986h-4172v10070l5037 5037-5034 5034h-3v10071h4172l30212-30212 7987 7986 6047-6046 1073-1074-15107-15107zm10071 48624v40035l-3073 3074-6998 6997-34381-34135h-3V65457h4172v-1l30212 30189V55388c5036-5036 10072-10072 15107-15108l7120-7120 7985-7986h4170v10072l-5034 5035 5034 5034v10071h-4169l-7985-7985v-1h-1l-12156 12157z" fill="#457f9c"/><path d="M155230 25174v10072l2-2h24930v-5035l5035 5035h48269v5036l5035-5036 5036-5035-5036-5035-5035-5036v5036h-78236zM10070 20138c3728 0 6982 2026 8724 5036h67670v10070H59077c-1741-3010-4996-5035-8724-5035-3727 0-6982 2025-8723 5035H18794c-1742 3010-4996 5036-8724 5036C4508 40280 0 35771 0 30209s4508-10071 10070-10071zm40283 40283c3728 0 6982 2025 8723 5035h2696c1741 3010 4995 5036 8723 5036 3727 0 6982-2026 8723-5036l7246 1v10071l-27388-1c-1741 3010-4995 5035-8723 5035-5562 0-10070-4509-10070-10070 0-5562 4508-10071 10070-10071zm36111-15106H59077c-1741 3010-4996 5036-8724 5036-3727 0-6982-2026-8723-5036h-2695c-1741-3010-4995-5035-8723-5035-5562 0-10071 4509-10071 10071 0 5561 4509 10070 10071 10070 3728 0 6982-2025 8723-5035h22837c1741-3011 4995-5036 8723-5036s6982 2025 8723 5036h7246V45315zm68766 0v10071h58094v5035l5036-5035 5035-5035-5035-5036-5036-5035v5035h-28127l-5035 5036v-5036h-24932z" fill="#66b3d9"/><path d="M247498 95669h-15281V65457h-10071v40282h25352V95669zm50108-4042h3369l-3369-12659-3369 12659h3369zm6826-26170l10720 40282h-10421l-1494-5611h-11263l-1493 5611h-10421l10720-40282h13652zm125706 0h12046v40282h-10089V91160l-3880 14579h-8798 1-1274l-3880-14579v14579h-10090V65457h12047l6958 26147 6959-26147zm-111318 0v40282h14907c24499 0 23041-40282 193-40282h-15100zm10071 10071h3143c12435 0 12000 20211 1016 20211h-4159V75528zm36909-10071h-10070v40282h10070V65457zm19187 30212c-2874 0-4945-2000-4945-6112V65457h-10070v24100c0 10123 5269 16177 15015 16177s15016-6054 15016-16177V65457h-10071v24100c0 4112-2071 6112-4945 6112zm-107966 0h-15281V65457h-10070v40282h25351V95669zm-75586-4042h3369l-3369-12659-3368 12659h3368zm6827-26170l10720 40282h-10421l-1494-5611h-11263l-1493 5611h-10421l10720-40282h13652zm-53032 0v40282h10071V95669h6999c17000 0 19135-30212-2079-30212h-14991zm10071 10070h4884c7194 0 6531 10071 194 10071h-5078V75527zm-36466-42367l7120 7120 7120-7120-4107-4106-3013-3014zm-37334 7121l7120-7121-7119-7119-866-867h-4172v10070zm-5037 25176l4172-1 30212 30189v14018L86464 75528z" fill="#235c78"/></svg>